<svg xmlns="http://www.w3.org/2000/svg" width="48" height="48" viewBox="0 0 48 48">
  <g id="Group_781" data-name="Group 781" transform="translate(-583.365 -3944.896)">
    <path id="Path_1212" data-name="Path 1212" d="M607.365,3992.9a24,24,0,1,1,24-24A24.027,24.027,0,0,1,607.365,3992.9Z" fill="#c61924"/>
    <path id="Path_1213" data-name="Path 1213" d="M616.281,3989.762a2.728,2.728,0,0,1-1.164-.263,2.684,2.684,0,0,1-1.557-2.455l.016-16.592a2.709,2.709,0,0,1,4.44-2.082l10.254,8.273a2.709,2.709,0,0,1,.019,4.184l-.018.015-10.289,8.3A2.653,2.653,0,0,1,616.281,3989.762Z" transform="translate(-12.99 -9.856)" fill="#fff"/>
  </g>
</svg>
